<svg width="54" height="15" viewBox="0 0 54 15" fill="none" xmlns="http://www.w3.org/2000/svg">
<path d="M4.064 2.072C4.256 1.592 4.56 1.212 4.976 0.931999C5.4 0.643999 5.872 0.499999 6.392 0.499999H16.004L13.592 6.428C13.4 6.908 13.092 7.292 12.668 7.58C12.252 7.86 11.784 8 11.264 8H4.904L3.98 10.28C3.892 10.496 3.748 10.672 3.548 10.808C3.356 10.936 3.144 11 2.912 11H0.452L4.064 2.072ZM10.664 4.952C10.752 4.952 10.832 4.928 10.904 4.88C10.984 4.832 11.04 4.768 11.072 4.688L11.54 3.536H7.016C6.824 3.536 6.688 3.628 6.608 3.812L6.14 4.952H10.664ZM15.6793 4.364C15.7833 4.108 15.9473 3.908 16.1713 3.764C16.3953 3.612 16.6433 3.536 16.9153 3.536H19.2433L16.4953 10.28C16.4073 10.496 16.2633 10.672 16.0633 10.808C15.8713 10.936 15.6593 11 15.4273 11H12.9793L15.6793 4.364ZM16.2193 3.128L16.9873 1.22C17.0753 1.004 17.2153 0.831999 17.4073 0.704C17.6073 0.567999 17.8273 0.499999 18.0673 0.499999H20.5033L19.7233 2.396C19.6353 2.62 19.4913 2.8 19.2913 2.936C19.0993 3.064 18.8873 3.128 18.6553 3.128H16.2193ZM17.8192 11L20.5192 4.364C20.6232 4.108 20.7872 3.908 21.0112 3.764C21.2352 3.612 21.4832 3.536 21.7552 3.536H30.4432L27.7072 10.28C27.6192 10.496 27.4752 10.672 27.2752 10.808C27.0832 10.936 26.8672 11 26.6272 11H24.1912L26.0032 6.56H23.1472C22.9552 6.56 22.8192 6.652 22.7392 6.836L21.3352 10.28C21.2472 10.496 21.1032 10.672 20.9032 10.808C20.7112 10.936 20.4992 11 20.2672 11H17.8192ZM29.3039 10.016L31.6079 4.364C31.7119 4.108 31.8759 3.908 32.0999 3.764C32.3239 3.612 32.5719 3.536 32.8439 3.536H42.4319C41.7439 5.224 41.1319 6.732 40.5959 8.06L38.7479 12.596C38.5399 13.036 38.2319 13.384 37.8239 13.64C37.4239 13.904 36.9759 14.036 36.4799 14.036H30.4199L31.3319 11.756C31.4199 11.524 31.5639 11.34 31.7639 11.204C31.9639 11.076 32.1839 11.012 32.4239 11.012H35.6159C35.7839 11.012 35.9359 10.968 36.0719 10.88C36.2159 10.784 36.3199 10.656 36.3839 10.496L36.5759 10.016H29.3039ZM37.3079 7.484C37.3959 7.484 37.4759 7.46 37.5479 7.412C37.6279 7.364 37.6839 7.3 37.7159 7.22L38.1839 6.068H34.4279C34.2359 6.068 34.0999 6.16 34.0199 6.344L33.5519 7.484H37.3079ZM43.6562 4.364C43.7602 4.108 43.9202 3.908 44.1362 3.764C44.3602 3.612 44.6082 3.536 44.8802 3.536H53.3162L50.5802 10.28C50.4922 10.496 50.3482 10.672 50.1482 10.808C49.9482 10.936 49.7322 11 49.5002 11H40.9562L43.6562 4.364ZM45.3962 7.976H47.9522C48.1762 7.976 48.3322 7.872 48.4202 7.664L48.8762 6.56H46.2722C46.0802 6.56 45.9442 6.652 45.8642 6.836L45.3962 7.976Z" fill="white"/>
</svg>
